<?xml version="1.0" encoding="UTF-8"?>
<svg version="1.1" xmlns="http://www.w3.org/2000/svg" width="950" height="200">
<path d="M0 0 C8.66096409 4.77265444 16.3842431 11.6856702 21.28515625 20.265625 C22.64987607 22.59038205 22.64987607 22.59038205 24.41015625 24.328125 C26.81326099 24.85283961 28.73566928 24.71458675 31.17578125 24.46484375 C36.0538422 24.166361 39.72877546 26.86051073 43.59765625 29.515625 C48.84229708 34.76026583 51.53588852 41.16348386 51.66015625 48.578125 C51.58155626 55.19799104 50.40715955 59.13629211 45.84765625 64.140625 C45.04328125 64.8625 44.23890625 65.584375 43.41015625 66.328125 C42.75015625 66.988125 42.09015625 67.648125 41.41015625 68.328125 C41.60748076 70.40861169 41.81972264 72.48857412 42.09960938 74.55957031 C42.70129973 79.92369658 42.63624423 85.31096441 42.66015625 90.703125 C42.68078125 91.858125 42.70140625 93.013125 42.72265625 94.203125 C42.7707959 104.86605812 41.25181439 114.81492538 34.41015625 123.328125 C22.7643916 134.71509488 5.38808505 136.97203 -10.24902344 136.80029297 C-24.86760843 136.27881128 -41.1023508 132.05951313 -51.58984375 121.328125 C-60.75176196 109.88564274 -63.48516311 98.89198657 -62.58984375 84.328125 C-61.83426419 78.61930166 -60.72530161 72.97162093 -59.58984375 67.328125 C-60.36972656 67.04453125 -61.14960937 66.7609375 -61.953125 66.46875 C-65.32714849 65.00917243 -66.57696573 63.38214682 -68.58984375 60.328125 C-71.34886754 53.26184824 -71.9796843 45.74221086 -69.6796875 38.4375 C-66.73681101 32.11646626 -63.33261412 28.3964981 -57.21484375 25.015625 C-54.58984375 24.328125 -54.58984375 24.328125 -50.77734375 24.953125 C-48.65088857 25.13515031 -48.65088857 25.13515031 -46.58984375 24.328125 C-44.29744896 21.59754609 -42.55856018 18.69458558 -40.71484375 15.64453125 C-31.29089817 0.9369397 -16.87683968 -7.59591517 0 0 Z " fill="#BD7C40" transform="translate(704.58984375,41.671875)"/>
<path d="M0 0 C0.83152588 -0.0004985 1.66305176 -0.00099701 2.51977539 -0.00151062 C4.28159978 0.00082829 6.04342761 0.01054606 7.80517578 0.02709961 C10.46288048 0.05045505 13.11956408 0.0476885 15.77734375 0.04101562 C30.07029903 0.06360329 43.83504199 0.20527246 55.375 9.73828125 C61.69299504 17.54286336 63.23821295 24.45780569 62.5 34.36328125 C61.05960439 41.64465117 57.96702537 46.5521796 52.1875 51.23828125 C51.3521875 51.79515625 51.3521875 51.79515625 50.5 52.36328125 C52.2634375 53.13671875 52.2634375 53.13671875 54.0625 53.92578125 C59.98568828 56.9083796 64.0666451 60.87879943 67.375 66.61328125 C70.35156524 76.53516539 70.0001473 86.01710749 65.875 95.55078125 C61.35602289 103.76108398 53.20274806 108.52612163 44.5 111.36328125 C34.85697265 114.0346992 24.86527479 113.7018722 14.94555664 113.67895508 C12.04471366 113.67576167 9.14486051 113.69943673 6.24414062 113.72460938 C4.39323044 113.7268796 2.54231754 113.72758716 0.69140625 113.7265625 C-0.17213974 113.73577225 -1.03568573 113.74498199 -1.92539978 113.75447083 C-2.73046463 113.74824203 -3.53552948 113.74201324 -4.36499023 113.7355957 C-5.06905502 113.73622513 -5.77311981 113.73685455 -6.4985199 113.73750305 C-9.18670988 113.23488537 -10.49348888 112.20680827 -12.5 110.36328125 C-13.00336456 108.33145905 -13.00336456 108.33145905 -13.00793457 105.96057129 C-13.01921387 105.06046829 -13.03049316 104.1603653 -13.04211426 103.23298645 C-13.03401733 102.24795639 -13.02592041 101.26292633 -13.01757812 100.24804688 C-13.0245874 99.20879562 -13.03159668 98.16954437 -13.03881836 97.09880066 C-13.0564575 93.65544094 -13.0447541 90.21289967 -13.03125 86.76953125 C-13.0339432 84.38203778 -13.03782417 81.99454537 -13.04284668 79.60705566 C-13.04874978 74.60007295 -13.04015233 69.59337539 -13.02148438 64.58642578 C-12.9986948 58.15986687 -13.01181348 51.73397609 -13.03577423 45.30744171 C-13.05021005 40.37643373 -13.04563632 35.44558485 -13.03526306 30.51457214 C-13.03258966 28.14462709 -13.03588696 25.77466772 -13.04518127 23.40473938 C-13.05531004 20.09560743 -13.03989617 16.78756608 -13.01757812 13.47851562 C-13.02567505 12.49348557 -13.03377197 11.50845551 -13.04211426 10.49357605 C-13.03083496 9.59347305 -13.01955566 8.69337006 -13.00793457 7.76599121 C-13.00642647 6.98359825 -13.00491837 6.20120529 -13.00336456 5.39510345 C-12.5 3.36328125 -12.5 3.36328125 -10.70848846 1.61138153 C-7.29425733 -0.31812949 -3.81691078 -0.04422915 0 0 Z M10.5 18.36328125 C10.5 27.60328125 10.5 36.84328125 10.5 46.36328125 C14.7384375 46.48703125 14.7384375 46.48703125 19.0625 46.61328125 C20.3764978 46.66790527 20.3764978 46.66790527 21.71704102 46.72363281 C27.49467447 46.80453925 30.77405059 45.71894894 35.5 42.36328125 C38.87248584 37.68531701 39.36144005 32.9526248 38.5 27.36328125 C36.7202103 23.18464457 34.82223889 21.17338238 30.6875 19.48828125 C24.1194156 17.60381408 17.25403662 18.18073972 10.5 18.36328125 Z M10.5 64.36328125 C10.5 74.59328125 10.5 84.82328125 10.5 95.36328125 C14.7075 95.42515625 14.7075 95.42515625 19 95.48828125 C20.3003418 95.51559326 20.3003418 95.51559326 21.62695312 95.54345703 C28.14419455 95.58924907 34.53329724 95.16897895 39.875 91.05078125 C43.50013358 87.33933497 44.3470987 85.04519556 44.8125 79.92578125 C44.3592524 74.75875866 42.89014276 71.6802586 39.125 68.11328125 C34.92347932 65.31226746 31.47096851 64.10596875 26.41796875 64.16796875 C25.5777417 64.17296387 24.73751465 64.17795898 23.87182617 64.18310547 C22.29558472 64.21041748 22.29558472 64.21041748 20.6875 64.23828125 C15.6446875 64.30015625 15.6446875 64.30015625 10.5 64.36328125 Z " fill="#000000" transform="translate(558.5,50.63671875)"/>
<path d="M0 0 C1.14533203 -0.02449219 2.29066406 -0.04898438 3.47070312 -0.07421875 C4.57220703 -0.07808594 5.67371094 -0.08195312 6.80859375 -0.0859375 C7.81591553 -0.09415527 8.8232373 -0.10237305 9.86108398 -0.11083984 C13.33518882 0.51396527 14.28331054 1.7257066 16.5625 4.375 C17.66389465 6.65467834 17.66389465 6.65467834 18.52270508 9.19555664 C18.85489548 10.15907547 19.18708588 11.1225943 19.52934265 12.11531067 C19.87672989 13.16135971 20.22411713 14.20740875 20.58203125 15.28515625 C20.95789871 16.38506393 21.33376617 17.48497162 21.72102356 18.61820984 C22.94974324 22.22109151 24.16226842 25.82920888 25.375 29.4375 C26.21861645 31.91937834 27.0635155 34.40082106 27.90966797 36.88183594 C29.19947375 40.66500235 30.48876931 44.44832554 31.77233887 48.23361206 C35.83938375 60.22253876 40.00290425 72.1767013 44.1875 84.125 C45.12635658 86.80998323 46.06473901 89.49513151 47.00285339 92.18037415 C47.55068898 93.74827661 48.09885241 95.31606457 48.64741516 96.88371277 C50.56533503 102.36776176 51.77961009 106.51302764 51.5625 112.375 C50.5625 113.375 50.5625 113.375 48.42944336 113.48852539 C47.51300049 113.48328857 46.59655762 113.47805176 45.65234375 113.47265625 C44.66298828 113.46943359 43.67363281 113.46621094 42.65429688 113.46289062 C41.61337891 113.45451172 40.57246094 113.44613281 39.5 113.4375 C38.45521484 113.43298828 37.41042969 113.42847656 36.33398438 113.42382812 C33.7434334 113.41199913 31.15299441 113.39551689 28.5625 113.375 C26.00055685 107.81314035 23.70424704 102.26146337 21.8125 96.4375 C21.59207031 95.77943359 21.37164062 95.12136719 21.14453125 94.44335938 C19.5625 89.64322108 19.5625 89.64322108 19.5625 87.375 C6.0325 87.375 -7.4975 87.375 -21.4375 87.375 C-22.4275 91.005 -23.4175 94.635 -24.4375 98.375 C-25.08021582 100.54889173 -25.74155179 102.71756055 -26.4375 104.875 C-26.746875 105.8546875 -27.05625 106.834375 -27.375 107.84375 C-28.47477934 110.46381255 -29.23956082 111.62342893 -31.4375 113.375 C-33.50634766 113.73144531 -33.50634766 113.73144531 -35.8515625 113.703125 C-36.69460937 113.69796875 -37.53765625 113.6928125 -38.40625 113.6875 C-39.2828125 113.666875 -40.159375 113.64625 -41.0625 113.625 C-41.94679688 113.61984375 -42.83109375 113.6146875 -43.7421875 113.609375 C-50.28338509 113.52911491 -50.28338509 113.52911491 -51.4375 112.375 C-52.3181258 105.14378197 -49.48921559 98.7967488 -47.1171875 92.0625 C-46.66084254 90.74279183 -46.20541315 89.42276676 -45.75083923 88.10244751 C-44.53537189 84.58143524 -43.30637447 81.06529597 -42.07397842 77.55017853 C-41.05856467 74.64962859 -40.05020398 71.74664872 -39.04187489 68.84362984 C-36.54612753 61.65869792 -34.03603748 54.47888141 -31.51649189 47.30226326 C-30.02849883 43.06320525 -28.54654814 38.822103 -27.06982422 34.57910156 C-25.43213174 29.87472876 -23.78446438 25.17403909 -22.12432861 20.47753906 C-21.54399572 18.83308022 -20.96661557 17.1875762 -20.39227295 15.54101562 C-19.61137698 13.30748399 -18.81766078 11.07898322 -18.01953125 8.8515625 C-17.58874268 7.63549316 -17.1579541 6.41942383 -16.71411133 5.16650391 C-13.5891616 -1.66667168 -6.45513486 0.00724076 0 0 Z M-1.4375 24.375 C-3.11578807 29.33518001 -4.78791195 34.29738137 -6.45458984 39.26147461 C-7.02129809 40.9466011 -7.58962726 42.63118344 -8.15966797 44.31518555 C-8.98321249 46.74904087 -9.80072409 49.18485517 -10.6171875 51.62109375 C-10.86935028 52.36209824 -11.12151306 53.10310272 -11.38131714 53.86656189 C-13.10686129 59.04156585 -14.24018664 63.98708987 -15.4375 69.375 C-5.8675 69.375 3.7025 69.375 13.5625 69.375 C10.9931114 59.07228121 10.9931114 59.07228121 7.86328125 48.984375 C7.6233696 48.26888489 7.38345795 47.55339478 7.13627625 46.81622314 C6.38682307 44.58433797 5.63106513 42.3546528 4.875 40.125 C4.35829972 38.58998649 3.84202085 37.05483106 3.32617188 35.51953125 C2.07645604 31.80303714 0.82109079 28.08849751 -0.4375 24.375 C-0.7675 24.375 -1.0975 24.375 -1.4375 24.375 Z " fill="#C17F42" transform="translate(118.4375,50.625)"/>
<path d="M0 0 C13.79557598 8.30869917 23.73204893 24.10273388 27.9375 39.47265625 C28.58013812 43.55340833 28.72896986 47.57240669 28.78125 51.69921875 C28.79526855 52.46830566 28.80928711 53.23739258 28.82373047 54.02978516 C28.77198545 60.13702442 27.47031398 64.38515477 23.03125 68.82421875 C13.8158613 72.95525507 4.1978507 70.20928527 -4.98828125 67.32421875 C-12.53733294 65.49216287 -17.50833384 66.4344667 -24.40625 69.44921875 C-30.78090257 72.01408421 -36.65820567 74.0222288 -43.59375 72.44921875 C-48.04140661 70.3626638 -50.16276373 66.88324106 -51.98730469 62.41381836 C-53.02955279 59.03742121 -53.03926843 55.77121264 -52.96875 52.26171875 C-52.95714844 51.51414307 -52.94554687 50.76656738 -52.93359375 49.99633789 C-52.47760878 34.38388203 -45.61458776 17.72527591 -34.59375 6.44921875 C-24.42427229 -2.64886321 -13.02367941 -6.02556596 0 0 Z " fill="#333333" transform="translate(707.59375,58.55078125)"/>
<path d="M0 0 C6.54410496 5.47878554 10.15542739 13.0571489 11.5625 21.375 C11.84300157 24.65201356 11.8878323 27.8998659 11.875 31.1875 C11.89111328 32.03248047 11.90722656 32.87746094 11.92382812 33.74804688 C11.92447266 34.55951172 11.92511719 35.37097656 11.92578125 36.20703125 C11.92876221 36.93639893 11.93174316 37.6657666 11.93481445 38.41723633 C11.44336602 41.00144944 10.62240046 41.76052435 8.5625 43.375 C6.30354309 43.73576355 6.30354309 43.73576355 3.63208008 43.71557617 C2.13086357 43.71523628 2.13086357 43.71523628 0.59931946 43.71488953 C-0.47888565 43.69940567 -1.55709076 43.68392181 -2.66796875 43.66796875 C-3.77352615 43.66372391 -4.87908356 43.65947906 -6.0181427 43.65510559 C-9.55400812 43.63829437 -13.08930645 43.60063685 -16.625 43.5625 C-19.02017407 43.54745636 -21.41535706 43.5337674 -23.81054688 43.52148438 C-29.68639185 43.48838285 -35.56190542 43.43815893 -41.4375 43.375 C-40.99638682 45.31206223 -40.54362982 47.2464755 -40.0859375 49.1796875 C-39.83505371 50.25718262 -39.58416992 51.33467773 -39.32568359 52.44482422 C-37.88824542 57.18702679 -35.37189316 59.32938207 -31.125 61.625 C-20.29413742 64.6475663 -9.69821512 62.75639496 0.72265625 58.9140625 C3.28493298 58.16333174 5.10514083 58.37669784 7.5625 59.375 C8.77517134 61.80034269 8.76381212 63.48126554 8.8125 66.1875 C8.83828125 67.03957031 8.8640625 67.89164062 8.890625 68.76953125 C8.47441618 72.07442747 7.66142074 73.78195834 5.5625 76.375 C2.671875 77.703125 2.671875 77.703125 -0.6875 78.625 C-1.78578125 78.93953125 -2.8840625 79.2540625 -4.015625 79.578125 C-19.29122177 83.13545576 -36.72386631 83.14523922 -50.47265625 74.81640625 C-58.91757071 68.62123044 -62.80448559 59.44331149 -64.4375 49.375 C-65.75209794 34.14469093 -65.18505851 18.90330373 -55.4375 6.375 C-41.87003696 -9.39259218 -17.11885917 -11.41257278 0 0 Z M-35.140625 12.859375 C-39.47895877 17.61890623 -41.4375 21.84122261 -41.4375 28.375 C-31.2075 28.375 -20.9775 28.375 -10.4375 28.375 C-10.4375 21.63464241 -10.77715484 18.67412714 -14.4375 13.375 C-20.25028944 8.50482507 -29.20737106 7.68819037 -35.140625 12.859375 Z " fill="#000000" transform="translate(513.4375,84.625)"/>
<path d="M0 0 C10.65691222 -0.0462719 21.31380068 -0.08184295 31.97079277 -0.10362434 C36.91887832 -0.11407654 41.86689532 -0.12826183 46.81494141 -0.15087891 C51.58707481 -0.17255623 56.35914213 -0.1845578 61.13132095 -0.18975449 C62.9550493 -0.19345946 64.77877389 -0.200694 66.60247421 -0.21146011 C69.15026512 -0.22590721 71.69778042 -0.22798081 74.24560547 -0.22705078 C75.00517548 -0.23424133 75.76474548 -0.24143188 76.54733276 -0.24884033 C81.77189568 -0.22810432 81.77189568 -0.22810432 84 2 C85.19427895 7.89434451 85.62752996 13.4529923 83 19 C82.505 19.495 82.505 19.495 82 20 C72.43 20 62.86 20 53 20 C53 50.36 53 80.72 53 112 C49.47441767 113.76279117 45.44604409 113.22713881 41.5625 113.25 C40.69044922 113.270625 39.81839844 113.29125 38.91992188 113.3125 C38.08138672 113.31765625 37.24285156 113.3228125 36.37890625 113.328125 C35.6113501 113.3374707 34.84379395 113.34681641 34.05297852 113.35644531 C31.41909732 112.89914164 30.67043632 112.05332555 29 110 C28.71930189 107.06084395 28.62127552 104.33608662 28.65942383 101.39770508 C28.65876671 100.08031593 28.65876671 100.08031593 28.65809631 98.73631287 C28.66018799 95.83049363 28.68353694 92.92524982 28.70703125 90.01953125 C28.71262585 88.00599991 28.71689659 85.99246449 28.71989441 83.97892761 C28.73135384 78.676979 28.76083055 73.37527657 28.79400635 68.07342529 C28.82468353 62.66421845 28.83839472 57.25497187 28.85351562 51.84570312 C28.88569917 41.23034313 28.93847615 30.61523054 29 20 C19.43 20 9.86 20 0 20 C-2.00228648 15.99542705 -2.27165006 14.33001252 -2.25 10 C-2.25515625 8.96875 -2.2603125 7.9375 -2.265625 6.875 C-2.00096066 4.01039768 -1.34311126 2.4861563 0 0 Z " fill="#000000" transform="translate(760,51)"/>
<path d="M0 0 C3.03305355 3.13089398 3.18284791 5.93715135 3.25 10.125 C3.19535459 13.12139007 2.9576845 15.1269465 2 18 C0.95199219 17.96519531 -0.09601563 17.93039063 -1.17578125 17.89453125 C-2.55467147 17.86639063 -3.93357902 17.83909076 -5.3125 17.8125 C-6.34793945 17.77479492 -6.34793945 17.77479492 -7.40429688 17.73632812 C-10.18573599 17.69601741 -12.42619576 17.68958131 -14.90625 19.03125 C-16.59910189 22.07838339 -16.83985708 25.27972752 -17.1875 28.6875 C-17.455625 31.100625 -17.72375 33.51375 -18 36 C-12.72 36 -7.44 36 -2 36 C0.32066086 41.80165214 0.96687489 45.97045867 -0.9375 51.9375 C-2 54 -2 54 -3 55 C-7.95 55 -12.9 55 -18 55 C-18 76.12 -18 97.24 -18 119 C-20.27073079 120.1353654 -21.54283279 120.12892412 -24.0625 120.1328125 C-24.85914063 120.13410156 -25.65578125 120.13539063 -26.4765625 120.13671875 C-27.30929687 120.13285156 -28.14203125 120.12898438 -29 120.125 C-29.83273437 120.12886719 -30.66546875 120.13273437 -31.5234375 120.13671875 C-32.71839844 120.13478516 -32.71839844 120.13478516 -33.9375 120.1328125 C-34.66839844 120.13168457 -35.39929688 120.13055664 -36.15234375 120.12939453 C-38 120 -38 120 -40 119 C-40 97.88 -40 76.76 -40 55 C-43.63 55 -47.26 55 -51 55 C-53 53 -53 53 -53.23046875 49.59375 C-53.22647854 48.22909733 -53.21172843 46.8644434 -53.1875 45.5 C-53.18685547 44.81035156 -53.18621094 44.12070313 -53.18554688 43.41015625 C-53.14055525 38.28111049 -53.14055525 38.28111049 -52 36 C-48.04 36 -44.08 36 -40 36 C-40.04640625 34.81664062 -40.0928125 33.63328125 -40.140625 32.4140625 C-40.42992323 21.8958464 -39.82187195 14.27878964 -34.25 5.125 C-25.66152896 -2.98633376 -10.67643302 -4.77032114 0 0 Z " fill="#000000" transform="translate(443,44)"/>
<path d="M0 0 C0.78890625 -0.00257812 1.5778125 -0.00515625 2.390625 -0.0078125 C3.21046875 -0.00007813 4.0303125 0.00765625 4.875 0.015625 C6.10476563 0.00402344 6.10476563 0.00402344 7.359375 -0.0078125 C8.14828125 -0.00523438 8.9371875 -0.00265625 9.75 0 C10.46929687 0.00225586 11.18859375 0.00451172 11.9296875 0.00683594 C13.875 0.265625 13.875 0.265625 16.875 2.265625 C17.16111093 5.19619569 17.25305361 7.91450026 17.21557617 10.84619141 C17.21623329 12.17799187 17.21623329 12.17799187 17.21690369 13.53669739 C17.21480852 16.48041543 17.1914433 19.42356858 17.16796875 22.3671875 C17.16237538 24.40456837 17.15810406 26.44195326 17.15510559 28.4793396 C17.14363643 33.84870492 17.11415143 39.21782781 17.08099365 44.58709717 C17.05033737 50.06323975 17.03660977 55.53942139 17.02148438 61.015625 C16.98928372 71.76573167 16.93806238 82.5156582 16.875 93.265625 C17.95507324 93.25515137 19.03514648 93.24467773 20.14794922 93.23388672 C24.14726459 93.19774306 28.14656546 93.17474516 32.14599609 93.15576172 C33.87844265 93.14569124 35.61087216 93.13203411 37.34326172 93.11474609 C39.83044639 93.09054338 42.31740675 93.07915261 44.8046875 93.0703125 C45.97038773 93.05482864 45.97038773 93.05482864 47.15963745 93.03903198 C49.06625493 93.03863229 50.97231036 93.1433036 52.875 93.265625 C55.85259558 96.24322058 55.8310567 98.47464556 56.0625 102.640625 C55.87421078 106.28088331 55.59954778 110.54107722 52.875 113.265625 C51.14193405 113.36972585 49.40463367 113.40416013 47.66845703 113.41088867 C46.55705353 113.41726852 45.44565002 113.42364838 44.30056763 113.43022156 C43.09020844 113.43133438 41.87984924 113.4324472 40.6328125 113.43359375 C38.78113968 113.43858635 38.78113968 113.43858635 36.89205933 113.44367981 C34.27423476 113.44875468 31.6564037 113.45108796 29.03857422 113.45092773 C26.34970388 113.45084636 23.66100346 113.45780031 20.97216797 113.47143555 C17.10899604 113.48970057 13.24602322 113.49466196 9.3828125 113.49609375 C8.17650177 113.50327927 6.97019104 113.51046478 5.72732544 113.51786804 C4.60961761 113.51479141 3.49190979 113.51171478 2.34033203 113.50854492 C1.35517609 113.50996994 0.37002014 113.51139496 -0.64498901 113.51286316 C-3.125 113.265625 -3.125 113.265625 -6.125 111.265625 C-7.05598092 108.47268224 -7.25438215 106.78048402 -7.26544189 103.89414978 C-7.27115204 103.00101578 -7.27686218 102.10788177 -7.28274536 101.18768311 C-7.28386322 100.21043274 -7.28498108 99.23318237 -7.28613281 98.22631836 C-7.29109772 97.19521439 -7.29606262 96.16411041 -7.30117798 95.10176086 C-7.3158003 91.68632342 -7.32260032 88.27093236 -7.328125 84.85546875 C-7.33387461 82.48800149 -7.33963237 80.12053424 -7.34539795 77.75306702 C-7.35590691 72.78907046 -7.36175086 67.8250901 -7.36523438 62.86108398 C-7.37073117 56.48613052 -7.39478499 50.11138935 -7.42320633 43.73650265 C-7.44178213 38.84761416 -7.44703551 33.95877745 -7.44857025 29.06985664 C-7.45160673 26.71861162 -7.45966846 24.36736771 -7.47275543 22.01615715 C-7.48971672 18.73578317 -7.48796044 15.45593653 -7.48144531 12.17553711 C-7.4906601 11.19626251 -7.49987488 10.21698792 -7.5093689 9.20803833 C-7.50379974 8.31772415 -7.49823059 7.42740997 -7.49249268 6.51011658 C-7.49395924 5.73417617 -7.4954258 4.95823576 -7.4969368 4.15878201 C-7.37419765 3.53404019 -7.25145851 2.90929838 -7.125 2.265625 C-4.07526315 0.2324671 -3.43543132 0.0107742 0 0 Z " fill="#000000" transform="translate(284.125,50.734375)"/>
<path d="M0 0 C0.78890625 -0.00257812 1.5778125 -0.00515625 2.390625 -0.0078125 C3.21046875 -0.00007813 4.0303125 0.00765625 4.875 0.015625 C6.10476562 0.00402344 6.10476562 0.00402344 7.359375 -0.0078125 C8.14828125 -0.00523438 8.9371875 -0.00265625 9.75 0 C10.46929687 0.00225586 11.18859375 0.00451172 11.9296875 0.00683594 C13.875 0.265625 13.875 0.265625 16.875 2.265625 C17.25252342 4.20842743 17.25252342 4.20842743 17.25595093 6.6307373 C17.2644104 7.54773911 17.27286987 8.46474091 17.28158569 9.40953064 C17.275513 10.4184285 17.26944031 11.42732635 17.26318359 12.46679688 C17.26844055 13.52701553 17.27369751 14.58723419 17.27911377 15.67958069 C17.29236029 19.19799359 17.28355902 22.71595719 17.2734375 26.234375 C17.27545689 28.67053311 17.2783672 31.10669064 17.28213501 33.54284668 C17.28656468 38.65411115 17.28010651 43.76521859 17.26611328 48.87646484 C17.24902123 55.44093067 17.25885896 62.00502858 17.27683067 68.5694809 C17.28765106 73.60165193 17.28423017 78.63373519 17.2764473 83.66590881 C17.27444046 86.08691959 17.2769214 88.50793823 17.28388596 90.92893982 C17.29147163 94.30766024 17.27993632 97.68577782 17.26318359 101.06445312 C17.27229263 102.57779991 17.27229263 102.57779991 17.28158569 104.12171936 C17.27312622 105.03872116 17.26466675 105.95572296 17.25595093 106.9005127 C17.25481985 107.69987495 17.25368877 108.49923721 17.25252342 109.32282257 C17.06564933 110.28450977 17.06564933 110.28450977 16.875 111.265625 C13.76283261 113.34040326 13.03439492 113.52085088 9.49609375 113.53125 C8.65755859 113.53382813 7.81902344 113.53640625 6.95507812 113.5390625 C6.08302734 113.53132813 5.21097656 113.52359375 4.3125 113.515625 C2.99862305 113.52722656 2.99862305 113.52722656 1.65820312 113.5390625 C0.82095703 113.53648437 -0.01628906 113.53390625 -0.87890625 113.53125 C-1.64533447 113.52899414 -2.4117627 113.52673828 -3.20141602 113.52441406 C-5.125 113.265625 -5.125 113.265625 -7.125 111.265625 C-7.37947559 109.32282257 -7.37947559 109.32282257 -7.38569641 106.9005127 C-7.39278122 105.98351089 -7.39986603 105.06650909 -7.40716553 104.12171936 C-7.40468811 103.1128215 -7.40221069 102.10392365 -7.3996582 101.06445312 C-7.40476913 100.00423447 -7.40988007 98.94401581 -7.41514587 97.85166931 C-7.42909089 94.33334775 -7.42808155 90.81522097 -7.42578125 87.296875 C-7.42966519 84.86071702 -7.43399922 82.42455973 -7.43876648 79.98840332 C-7.44623906 74.87717495 -7.44592968 69.76601565 -7.44067383 64.65478516 C-7.43487476 58.09033702 -7.45181601 51.52617062 -7.4750185 44.9617691 C-7.48971709 39.92960953 -7.49063289 34.89751843 -7.48750877 29.86534119 C-7.48802384 27.44432517 -7.49329598 25.0233055 -7.50332069 22.60231018 C-7.5155941 19.22361689 -7.50894832 15.84548059 -7.49731445 12.46679688 C-7.50495819 11.45789902 -7.51260193 10.44900116 -7.52047729 9.40953064 C-7.51346298 8.49252884 -7.50644867 7.57552704 -7.4992218 6.6307373 C-7.49938954 5.83137505 -7.49955729 5.03201279 -7.49973011 4.20842743 C-7.37606917 3.56730263 -7.25240824 2.92617783 -7.125 2.265625 C-4.07526315 0.2324671 -3.43543132 0.0107742 0 0 Z " fill="#C17F42" transform="translate(193.125,50.734375)"/>
<path d="M0 0 C8.66096409 4.77265444 16.3842431 11.6856702 21.28515625 20.265625 C22.64987607 22.59038205 22.64987607 22.59038205 24.41015625 24.328125 C26.81326099 24.85283961 28.73566928 24.71458675 31.17578125 24.46484375 C36.0538422 24.166361 39.72877546 26.86051073 43.59765625 29.515625 C48.84229708 34.76026583 51.53588852 41.16348386 51.66015625 48.578125 C51.58155626 55.19799104 50.40715955 59.13629211 45.84765625 64.140625 C45.04328125 64.8625 44.23890625 65.584375 43.41015625 66.328125 C42.75015625 66.988125 42.09015625 67.648125 41.41015625 68.328125 C41.60748076 70.40861169 41.81972264 72.48857412 42.09960938 74.55957031 C42.70129973 79.92369658 42.63624423 85.31096441 42.66015625 90.703125 C42.68078125 91.858125 42.70140625 93.013125 42.72265625 94.203125 C42.7707959 104.86605812 41.25181439 114.81492538 34.41015625 123.328125 C22.7643916 134.71509488 5.38808505 136.97203 -10.24902344 136.80029297 C-24.86760843 136.27881128 -41.1023508 132.05951313 -51.58984375 121.328125 C-60.75176196 109.88564274 -63.48516311 98.89198657 -62.58984375 84.328125 C-61.83426419 78.61930166 -60.72530161 72.97162093 -59.58984375 67.328125 C-60.36972656 67.04453125 -61.14960937 66.7609375 -61.953125 66.46875 C-65.32714849 65.00917243 -66.57696573 63.38214682 -68.58984375 60.328125 C-71.34886754 53.26184824 -71.9796843 45.74221086 -69.6796875 38.4375 C-66.73681101 32.11646626 -63.33261412 28.3964981 -57.21484375 25.015625 C-54.58984375 24.328125 -54.58984375 24.328125 -50.77734375 24.953125 C-48.65088857 25.13515031 -48.65088857 25.13515031 -46.58984375 24.328125 C-44.29744896 21.59754609 -42.55856018 18.69458558 -40.71484375 15.64453125 C-31.29089817 0.9369397 -16.87683968 -7.59591517 0 0 Z M-38.015625 15.5 C-43.58033755 23.53663349 -47.4621385 32.08550264 -50.58984375 41.328125 C-50.81124023 41.98119629 -51.03263672 42.63426758 -51.26074219 43.30712891 C-56.38235693 58.78102366 -59.89373903 74.67773757 -60.08984375 91.015625 C-60.10829346 91.89951904 -60.12674316 92.78341309 -60.14575195 93.6940918 C-60.04134502 104.63201052 -55.36123437 113.04034679 -48.10546875 120.9453125 C-36.82273909 131.72534628 -20.0635089 134.84297289 -4.98852539 134.6796875 C8.79912095 134.23014124 22.85471902 131.35809883 32.91015625 121.265625 C43.86669303 107.38734507 41.41984415 87.46704274 39.72265625 70.890625 C36.11529896 46.83328364 24.74236089 20.92359875 4.91015625 6.015625 C-12.04853505 -5.72855714 -25.89091072 -0.35389371 -38.015625 15.5 Z " fill="#512306" transform="translate(704.58984375,41.671875)"/>
<path d="M0 0 C0.82435547 -0.020625 1.64871094 -0.04125 2.49804688 -0.0625 C3.29146484 -0.06765625 4.08488281 -0.0728125 4.90234375 -0.078125 C5.99083618 -0.09214355 5.99083618 -0.09214355 7.10131836 -0.10644531 C9.78385111 0.38110577 10.46047387 1.02867351 12.0625 3.25 C12.35845299 5.81506815 12.47250755 8.13766985 12.45068359 10.703125 C12.45594055 11.45952271 12.46119751 12.21592041 12.46661377 12.99523926 C12.47982414 15.49703586 12.47107232 17.99819686 12.4609375 20.5 C12.46295794 22.23730593 12.46586914 23.97461104 12.46963501 25.71191406 C12.47405976 29.35359774 12.46762254 32.99506072 12.45361328 36.63671875 C12.43652122 41.30773484 12.44636161 45.97823384 12.46433067 50.64923096 C12.47516449 54.23685613 12.47172404 57.82435845 12.4639473 61.4119873 C12.46194417 63.13440003 12.4644085 64.85682387 12.47138596 66.57922363 C12.47899395 68.98540855 12.46740612 71.3907528 12.45068359 73.796875 C12.45979263 74.86766296 12.45979263 74.86766296 12.46908569 75.96008301 C12.43152147 78.87345683 12.39459267 80.78952921 10.66081238 83.19354248 C8.61426337 84.54627685 7.34554171 84.60959063 4.90234375 84.578125 C3.7122168 84.57039063 3.7122168 84.57039063 2.49804688 84.5625 C1.67369141 84.541875 0.84933594 84.52125 0 84.5 C-0.82822266 84.49484375 -1.65644531 84.4896875 -2.50976562 84.484375 C-8.62805451 84.40472274 -8.62805451 84.40472274 -10.9375 83.25 C-10.9375 56.19 -10.9375 29.13 -10.9375 1.25 C-7.53058509 -0.45345745 -3.75482483 0.02337634 0 0 Z " fill="#000000" transform="translate(363.9375,79.75)"/>
<path d="M0 0 C0.33 0.66 0.66 1.32 1 2 C0.1920389 4.23859898 -0.677818 6.38331515 -1.625 8.5625 C-6.26102708 19.66342066 -9.64040441 31.20202204 -12 43 C-16.31354337 42.13912298 -18.13422493 40.38014495 -21 37 C-24.78886906 30.72876845 -24.90354864 24.18576886 -24 17 C-21.57104455 9.32906804 -17.63313122 4.56041462 -10.625 0.6875 C-6.99580908 -0.26300238 -3.74764684 -0.12703888 0 0 Z " fill="#1A1A19" transform="translate(658,66)"/>
<path d="M0 0 C6.83758655 2.27919552 11.99786847 5.62689143 15.3125 12.125 C18.28148499 18.56406448 19.1548412 25.10783805 17.50390625 32.1015625 C15.87547122 36.27845236 13.38043962 39.12662633 10 42 C8.515 42.495 8.515 42.495 7 43 C6.5978125 41.36417969 6.5978125 41.36417969 6.1875 39.6953125 C2.68131279 26.00740262 -2.6288095 13.58409055 -9 1 C-5.92009655 -0.53995173 -3.41257239 -0.22377524 0 0 Z " fill="#1A1A19" transform="translate(738,66)"/>
<path d="M0 0 C1.82144531 -0.02513672 1.82144531 -0.02513672 3.6796875 -0.05078125 C7.3451773 0.33571597 9.21201875 1.10357879 12.125 3.3125 C13.46327901 5.98905801 13.33078556 8.13684052 13.375 11.125 C13.40078125 12.16269531 13.4265625 13.20039062 13.453125 14.26953125 C13.08201851 17.71110214 12.16991005 19.54790073 10.125 22.3125 C6.99441914 23.87779043 3.68420992 23.57941314 0.25 23.625 C-0.47058594 23.65400391 -1.19117188 23.68300781 -1.93359375 23.71289062 C-5.46039913 23.75510837 -7.45979711 23.62357054 -10.3203125 21.48046875 C-13.45517532 17.10898919 -13.3941461 12.4948532 -12.875 7.3125 C-10.04622663 0.98143578 -6.65859439 0.02111605 0 0 Z " fill="#000000" transform="translate(363.875,45.6875)"/>
<path d="M0 0 C2.9367097 1.55103891 5.06190212 3.29581034 7 6 C8.06474033 9.92958121 7.36823079 13.15306918 5.75 16.875 C2.89030114 20.34749148 1.02958601 20.88768153 -3.4375 21.375 C-7.60997321 20.93579229 -9.07047808 19.92952192 -12 17 C-14.35620437 13.46569344 -14.48991613 12.16428713 -14 8 C-10.44260849 1.62122901 -7.46700328 -0.99560044 0 0 Z " fill="#42ACC7" transform="translate(721,100)"/>
<path d="M0 0 C2.87029869 1.79393668 4.49131638 2.98263276 6 6 C6.5811138 13.08958838 6.5811138 13.08958838 4.125 16.9375 C0.63841797 20.3215355 -2.03592714 20.38966392 -6.73828125 20.359375 C-10.32520929 19.78943134 -11.86838894 17.79773951 -14 15 C-15.41000664 12.17998673 -15.24548451 10.12992745 -15 7 C-11.68933924 0.06337746 -7.20314329 -1.06151585 0 0 Z " fill="#3BACC9" transform="translate(678,100)"/>
<path d="M0 0 C1.65 0 3.3 0 5 0 C7.51555067 4.94435821 9.83904454 9.8917242 12 15 C12.42152344 14.00097656 12.84304688 13.00195312 13.27734375 11.97265625 C13.83060217 10.66921692 14.38399451 9.36583443 14.9375 8.0625 C15.21529297 7.40314453 15.49308594 6.74378906 15.77929688 6.06445312 C17.88671875 1.11328125 17.88671875 1.11328125 19 0 C20.65 0 22.3 0 24 0 C24 7.26 24 14.52 24 22 C22.68 22 21.36 22 20 22 C19.67 18.04 19.34 14.08 19 10 C17.35 13.96 15.7 17.92 14 22 C12.35 21.67 10.7 21.34 9 21 C6.75991292 16.83509735 5.52772474 12.49587568 4 8 C3.67 12.62 3.34 17.24 3 22 C2.01 22 1.02 22 0 22 C0 14.74 0 7.48 0 0 Z " fill="#000000" transform="translate(873,34)"/>
<path d="M0 0 C1.9375 1.0625 1.9375 1.0625 3 3 C3.38991688 7.36706908 3.46324069 9.30513897 1 13 C-3.06177529 13.39307503 -5.75685151 13.52833811 -9.5 11.9375 C-11 10 -11 10 -11.5 6.5 C-11 3 -11 3 -9.4375 1.0625 C-6.09741776 -0.39343329 -3.60384106 -0.3931463 0 0 Z " fill="#91D4E5" transform="translate(722,104)"/>
<path d="M0 0 C3.5 -0.375 3.5 -0.375 7 0 C9.44897847 3.67346771 9.31537716 5.66356399 9 10 C7 12 7 12 3.5 12.3125 C1.7675 12.1578125 1.7675 12.1578125 0 12 C-2.31332486 8.53001271 -2.33957563 7.07490752 -2 3 C-1.34 2.01 -0.68 1.02 0 0 Z " fill="#A8DDEB" transform="translate(670,104)"/>
<path d="M0 0 C5.61 0 11.22 0 17 0 C17 0.99 17 1.98 17 3 C14.69 3 12.38 3 10 3 C10 9.27 10 15.54 10 22 C9.01 22 8.02 22 7 22 C7 15.73 7 9.46 7 3 C4.69 3 2.38 3 0 3 C0 2.01 0 1.02 0 0 Z " fill="#000000" transform="translate(853,34)"/>
<path d="M0 0 C0.66 0.33 1.32 0.66 2 1 C2 1.66 2 2.32 2 3 C7.32170494 3.29562367 7.32170494 3.29562367 12 1 C11.64827576 3.55000071 11.2291673 4.77027647 9.390625 6.61328125 C6.15599985 8.48957525 3.71918586 8.39863889 0 8.375 C-1.8253125 8.38660156 -1.8253125 8.38660156 -3.6875 8.3984375 C-7.13891462 7.98329093 -8.51267642 7.35052078 -11 5 C-10.67 4.34 -10.34 3.68 -10 3 C-7.69 3.33 -5.38 3.66 -3 4 C-2.01 2.68 -1.02 1.36 0 0 Z " fill="#1A1109" transform="translate(696,153)"/>
<path d="M0 0 C1.27875 -0.061875 2.5575 -0.12375 3.875 -0.1875 C4.95394531 -0.23970703 4.95394531 -0.23970703 6.0546875 -0.29296875 C6.69664062 -0.19628906 7.33859375 -0.09960938 8 0 C10.28062828 3.42094242 10.21925007 4.68187222 10.125 8.6875 C10.10695313 9.68136719 10.08890625 10.67523438 10.0703125 11.69921875 C10.03550781 12.83810547 10.03550781 12.83810547 10 14 C5.39242365 15.25293743 1.09007361 15.8574661 -3.4375 14 C-5.92938272 10.81039012 -5.26002825 7.96543085 -5 4 C-3.68 3.34 -2.36 2.68 -1 2 C-1.33 2.66 -1.66 3.32 -2 4 C-2.24787017 8.14503661 -2.24787017 8.14503661 -1 12 C1.33294775 12.04241723 3.66702567 12.04092937 6 12 C7.38929654 10.83752049 7.38929654 10.83752049 7.125 7.625 C7.17300461 4.04677028 7.17300461 4.04677028 6 1 C4.02 1 2.04 1 0 1 C0 0.67 0 0.34 0 0 Z " fill="#6DC6DD" transform="translate(671,103)"/>
<path d="M0 0 C0 1.32 0 2.64 0 4 C-3.63 4.66 -7.26 5.32 -11 6 C-10.67 5.34 -10.34 4.68 -10 4 C-10.99 3.34 -11.98 2.68 -13 2 C-12.01 1.67 -11.02 1.34 -10 1 C-13.63 1 -17.26 1 -21 1 C-14.5010656 -3.33262293 -7.09577135 -2.7690815 0 0 Z " fill="#764E28" transform="translate(691,147)"/>
<path d="M0 0 C0.66 0 1.32 0 2 0 C1.67257812 0.56203125 1.34515625 1.1240625 1.0078125 1.703125 C-0.11785494 4.26859964 -0.2068111 5.96842277 -0.125 8.75 C-0.10695313 9.54921875 -0.08890625 10.3484375 -0.0703125 11.171875 C-0.04710937 11.77515625 -0.02390625 12.3784375 0 13 C3.34939881 15.02558881 5.86962551 15.21738987 9.75 15.125 C10.73484375 15.10695313 11.7196875 15.08890625 12.734375 15.0703125 C13.48203125 15.04710938 14.2296875 15.02390625 15 15 C13.3703437 16.95143557 12.43023084 17.90331891 9.9140625 18.46875 C5.4670107 18.5294606 3.61013062 18.48302008 0 15.625 C-2.91316324 11.80147325 -3.37762733 9.81474852 -3 5 C-1.625 2.125 -1.625 2.125 0 0 Z " fill="#36A6C3" transform="translate(666,102)"/>
<path d="M0 0 C1.13308594 -0.01417969 2.26617188 -0.02835938 3.43359375 -0.04296875 C6.5625 0.1875 6.5625 0.1875 10.5625 2.1875 C5.6125 1.8575 0.6625 1.5275 -4.4375 1.1875 C-4.4375 1.8475 -4.4375 2.5075 -4.4375 3.1875 C-3.4475 3.5175 -2.4575 3.8475 -1.4375 4.1875 C-2.4275 4.5175 -3.4175 4.8475 -4.4375 5.1875 C-3.4475 5.8475 -2.4575 6.5075 -1.4375 7.1875 C-4.7375 6.8575 -8.0375 6.5275 -11.4375 6.1875 C-11.4375 3.1875 -11.4375 3.1875 -9.4375 1.1875 C-6.10499498 0.07666499 -3.50711042 0.01990415 0 0 Z " fill="#6A4624" transform="translate(712.4375,143.8125)"/>
<path d="M0 0 C2.5 0.125 2.5 0.125 3.5 1.125 C3.625 3.625 3.625 3.625 3.5 6.125 C2.5 7.125 2.5 7.125 0 7.25 C-2.5 7.125 -2.5 7.125 -3.5 6.125 C-3.625 3.625 -3.625 3.625 -3.5 1.125 C-2.5 0.125 -2.5 0.125 0 0 Z " fill="#E2F4F8" transform="translate(717.5,106.875)"/>
<path d="M0 0 C1.58538318 2.51796153 2.0373656 3.67865586 1.6875 6.6875 C1 9 1 9 0 10 C-1.66617115 10.04063832 -3.33388095 10.042721 -5 10 C-3.68 9.34 -2.36 8.68 -1 8 C-1 6.35 -1 4.7 -1 3 C-2.65 3 -4.3 3 -6 3 C-6.33 4.65 -6.66 6.3 -7 8 C-7.66 8 -8.32 8 -9 8 C-9.25 5.6875 -9.25 5.6875 -9 3 C-6.19926731 -0.00819437 -4.01012625 -0.33417719 0 0 Z " fill="#ADDFEC" transform="translate(721,105)"/>
<path d="M0 0 C1.2065625 0.0309375 1.2065625 0.0309375 2.4375 0.0625 C2.4375 2.3725 2.4375 4.6825 2.4375 7.0625 C0.77138095 7.105221 -0.89632885 7.10313832 -2.5625 7.0625 C-3.5625 6.0625 -3.5625 6.0625 -3.6875 3.5625 C-3.51717518 0.15600356 -3.41884482 0.08338646 0 0 Z " fill="#E5F5F9" transform="translate(674.5625,106.9375)"/>
<path d="M0 0 C6.34507042 -0.35915493 6.34507042 -0.35915493 8.9375 1.0625 C10.5957539 4.08637476 10.30144019 6.62386983 10 10 C9.01 11.485 9.01 11.485 8 13 C7.34 12.67 6.68 12.34 6 12 C6.33 11.67 6.66 11.34 7 11 C6.91062197 9.47480724 6.75462854 7.95318071 6.5625 6.4375 C6.40974609 5.19806641 6.40974609 5.19806641 6.25390625 3.93359375 C6.17011719 3.29550781 6.08632813 2.65742187 6 2 C3.69 2 1.38 2 -1 2 C-0.67 1.34 -0.34 0.68 0 0 Z " fill="#80CDE1" transform="translate(715,104)"/>
<path d="M0 0 C0.33 0 0.66 0 1 0 C1.61189802 7.95467422 1.61189802 7.95467422 -0.5 11.5625 C-4.14334551 13.65742367 -6.83456807 13.27769546 -11 13 C-11 12.67 -11 12.34 -11 12 C-9.02 12 -7.04 12 -5 12 C-5 11.34 -5 10.68 -5 10 C-3.625 8.375 -3.625 8.375 -2 7 C-1.34 7 -0.68 7 0 7 C0 4.69 0 2.38 0 0 Z " fill="#43B2CF" transform="translate(726,107)"/>
<path d="M0 0 C0 0.66 0 1.32 0 2 C-1.093125 2.28875 -2.18625 2.5775 -3.3125 2.875 C-7.04013845 3.81893204 -7.04013845 3.81893204 -10 6 C-10.73343428 9.06556598 -10.73343428 9.06556598 -11 12 C-11.33 12 -11.66 12 -12 12 C-12.4206933 7.70892835 -12.45543836 5.64865463 -9.9375 2.0625 C-6.35134537 -0.45543836 -4.29107165 -0.4206933 0 0 Z " fill="#51BBD7" transform="translate(677,101)"/>
<path d="M0 0 C1.27875 -0.061875 2.5575 -0.12375 3.875 -0.1875 C4.95394531 -0.23970703 4.95394531 -0.23970703 6.0546875 -0.29296875 C6.69664062 -0.19628906 7.33859375 -0.09960938 8 0 C10.4294516 3.6441774 10.16179575 5.71241272 10 10 C9.34 10 8.68 10 8 10 C7.34 7.03 6.68 4.06 6 1 C4.02 1 2.04 1 0 1 C0 0.67 0 0.34 0 0 Z " fill="#7BCCE0" transform="translate(671,103)"/>
<path d="M0 0 C-5.75 4 -5.75 4 -8 4 C-8 3.34 -8 2.68 -8 2 C-9.32 1.67 -10.64 1.34 -12 1 C-12 0.67 -12 0.34 -12 0 C-10.37585622 -0.19477739 -8.75063577 -0.38059458 -7.125 -0.5625 C-6.22007812 -0.66691406 -5.31515625 -0.77132812 -4.3828125 -0.87890625 C-2 -1 -2 -1 0 0 Z " fill="#322111" transform="translate(703,143)"/>
<path d="M0 0 C3.3 0.33 6.6 0.66 10 1 C10 1.66 10 2.32 10 3 C8.72125 3.061875 7.4425 3.12375 6.125 3.1875 C5.40570312 3.22230469 4.68640625 3.25710937 3.9453125 3.29296875 C3.30335938 3.19628906 2.66140625 3.09960938 2 3 C1.34 2.01 0.68 1.02 0 0 Z " fill="#63C2DB" transform="translate(711,116)"/>
<path d="M0 0 C3.3 0 6.6 0 10 0 C10 0.33 10 0.66 10 1 C8.948125 1.12375 7.89625 1.2475 6.8125 1.375 C3.54041229 1.91140782 0.99463924 2.63880035 -2 4 C-1.34 2.68 -0.68 1.36 0 0 Z " fill="#3FB0CD" transform="translate(711,102)"/>
</svg>
